<?xml version="1.0" encoding="UTF-8" standalone="no"?>
<svg
   xmlns:dc="http://purl.org/dc/elements/1.1/"
   xmlns:cc="http://creativecommons.org/ns#"
   xmlns:rdf="http://www.w3.org/1999/02/22-rdf-syntax-ns#"
   xmlns:svg="http://www.w3.org/2000/svg"
   xmlns="http://www.w3.org/2000/svg"
   xmlns:xlink="http://www.w3.org/1999/xlink"
   xmlns:sodipodi="http://sodipodi.sourceforge.net/DTD/sodipodi-0.dtd"
   xmlns:inkscape="http://www.inkscape.org/namespaces/inkscape"
   id="Capa_1"
   enable-background="new 0 0 510 510"
   height="512"
   viewBox="0 0 510 510"
   width="512"
   version="1.1"
   sodipodi:docname="hacker.svg"
   inkscape:export-filename="/home/n13q/Downloads/hacker.png"
   inkscape:export-xdpi="37.5"
   inkscape:export-ydpi="37.5"
   inkscape:version="0.92.5 (2060ec1f9f, 2020-04-08)">
  <metadata
     id="metadata268">
    <rdf:RDF>
      <cc:Work
         rdf:about="">
        <dc:format>image/svg+xml</dc:format>
        <dc:type
           rdf:resource="http://purl.org/dc/dcmitype/StillImage" />
      </cc:Work>
    </rdf:RDF>
  </metadata>
  <defs
     id="defs266" />
  <sodipodi:namedview
     pagecolor="#ffffff"
     bordercolor="#666666"
     borderopacity="1"
     objecttolerance="10"
     gridtolerance="10"
     guidetolerance="10"
     inkscape:pageopacity="0"
     inkscape:pageshadow="2"
     inkscape:window-width="1366"
     inkscape:window-height="682"
     id="namedview264"
     showgrid="false"
     inkscape:zoom="0.67948542"
     inkscape:cx="220.22272"
     inkscape:cy="184.0144"
     inkscape:window-x="0"
     inkscape:window-y="30"
     inkscape:window-maximized="1"
     inkscape:current-layer="Capa_1" />
  <linearGradient
     id="lg1">
    <stop
       offset="0"
       stop-color="#0b799d"
       id="stop159" />
    <stop
       offset="1"
       stop-color="#07485e"
       id="stop161" />
  </linearGradient>
  <linearGradient
     id="SVGID_1_"
     gradientUnits="userSpaceOnUse"
     x1="255"
     x2="255"
     xlink:href="#lg1"
     y1="270.701"
     y2="34.898" />
  <linearGradient
     id="SVGID_2_"
     gradientUnits="userSpaceOnUse"
     x1="255"
     x2="255"
     y1="232.855"
     y2="144.039">
    <stop
       offset="0"
       stop-color="#07485e"
       stop-opacity="0"
       id="stop165" />
    <stop
       offset="1"
       stop-color="#03232e"
       id="stop167" />
  </linearGradient>
  <linearGradient
     id="SVGID_3_"
     gradientUnits="userSpaceOnUse"
     x1="253.079"
     x2="253.079"
     y1="220.239"
     y2="122.466">
    <stop
       offset="0"
       stop-color="#ffdecf"
       id="stop170" />
    <stop
       offset="1"
       stop-color="#faa68e"
       id="stop172" />
  </linearGradient>
  <linearGradient
     id="SVGID_4_"
     gradientUnits="userSpaceOnUse"
     x1="253.079"
     x2="253.079"
     y1="149.591"
     y2="278.824">
    <stop
       offset="0"
       stop-color="#faa68e"
       stop-opacity="0"
       id="stop175" />
    <stop
       offset="1"
       stop-color="#c9766e"
       id="stop177" />
  </linearGradient>
  <linearGradient
     id="SVGID_5_"
     gradientUnits="userSpaceOnUse"
     x1="255"
     x2="255"
     y1="108.776"
     y2="273.787">
    <stop
       offset="0"
       stop-color="#07485e"
       stop-opacity="0"
       id="stop180" />
    <stop
       offset=".1225"
       stop-color="#0d5066"
       stop-opacity=".123"
       id="stop182" />
    <stop
       offset=".3102"
       stop-color="#1c657b"
       stop-opacity=".31"
       id="stop184" />
    <stop
       offset=".5394"
       stop-color="#35889e"
       stop-opacity=".539"
       id="stop186" />
    <stop
       offset=".799"
       stop-color="#58b8ce"
       stop-opacity=".799"
       id="stop188" />
    <stop
       offset="1"
       stop-color="#76e2f8"
       id="stop190" />
  </linearGradient>
  <linearGradient
     id="lg2">
    <stop
       offset="0"
       stop-color="#b5dbff"
       id="stop193" />
    <stop
       offset="1"
       stop-color="#48b2e3"
       id="stop195" />
  </linearGradient>
  <linearGradient
     id="SVGID_6_"
     gradientUnits="userSpaceOnUse"
     x1="255"
     x2="255"
     xlink:href="#lg2"
     y1="450.488"
     y2="531.935" />
  <linearGradient
     id="lg3">
    <stop
       offset="0"
       stop-color="#b5dbff"
       stop-opacity="0"
       id="stop199" />
    <stop
       offset=".1734"
       stop-color="#8fc5e9"
       stop-opacity=".173"
       id="stop201" />
    <stop
       offset=".4541"
       stop-color="#56a4c8"
       stop-opacity=".454"
       id="stop203" />
    <stop
       offset=".6955"
       stop-color="#2d8db1"
       stop-opacity=".696"
       id="stop205" />
    <stop
       offset=".8853"
       stop-color="#147ea2"
       stop-opacity=".885"
       id="stop207" />
    <stop
       offset="1"
       stop-color="#0b799d"
       id="stop209" />
  </linearGradient>
  <linearGradient
     id="SVGID_7_"
     gradientUnits="userSpaceOnUse"
     x1="250.996"
     x2="279.243"
     xlink:href="#lg3"
     y1="461.932"
     y2="571.662" />
  <linearGradient
     id="SVGID_8_"
     gradientUnits="userSpaceOnUse"
     x1="182.08"
     x2="420.502"
     xlink:href="#lg2"
     y1="285.084"
     y2="523.506" />
  <linearGradient
     id="SVGID_9_"
     gradientUnits="userSpaceOnUse"
     x1="245.58"
     x2="282.217"
     y1="348.585"
     y2="385.222">
    <stop
       offset="0"
       stop-color="#edf5ff"
       id="stop214" />
    <stop
       offset="1"
       stop-color="#d5e8fe"
       id="stop216" />
  </linearGradient>
  <linearGradient
     id="SVGID_10_"
     gradientUnits="userSpaceOnUse"
     x1="255"
     x2="255"
     xlink:href="#lg3"
     y1="420.311"
     y2="484.371" />
  <linearGradient
     id="SVGID_11_"
     gradientUnits="userSpaceOnUse"
     x1="152.583"
     x2="152.583"
     xlink:href="#lg2"
     y1="468.999"
     y2="485.678" />
  <linearGradient
     id="SVGID_12_"
     gradientUnits="userSpaceOnUse"
     x1="357.417"
     x2="357.417"
     xlink:href="#lg2"
     y1="468.999"
     y2="485.678" />
  <linearGradient
     id="SVGID_13_"
     gradientUnits="userSpaceOnUse"
     x1="202.485"
     x2="374.19"
     xlink:href="#lg1"
     y1="107.494"
     y2="279.199" />
  <g
     id="g325">
    <ellipse
       cx="255"
       cy="216.429"
       rx="155.929"
       ry="75.466003"
       id="ellipse223"
       style="fill:url(#SVGID_1_)" />
    <ellipse
       cx="255"
       cy="196.858"
       rx="143.64999"
       ry="95.038002"
       id="ellipse225"
       style="fill:url(#SVGID_2_)" />
    <g
       id="g231">
      <path
         d="m 253.079,265.238 c -51.495,0 -93.239,-41.744 -93.239,-93.239 v -69.456 c 0,-51.494 41.744,-93.239 93.239,-93.239 51.494,0 93.239,41.745 93.239,93.239 V 172 c 0,51.494 -41.744,93.238 -93.239,93.238 z"
         id="path227"
         style="fill:url(#SVGID_3_)"
         inkscape:connector-curvature="0" />
      <path
         d="m 258.376,205.338 h -10.594 c -8.49,0 -15.104,-7.364 -14.195,-15.804 l 5.539,-51.487 h 27.907 l 5.539,51.487 c 0.908,8.44 -5.706,15.804 -14.196,15.804 z"
         id="path229"
         style="fill:url(#SVGID_4_)"
         inkscape:connector-curvature="0" />
    </g>
    <path
       d="m 401.352,212.838 c 0.02,0.22 0.048,0.439 0.065,0.659 C 398.439,94.829 334.027,0 255,0 175.973,0 111.561,94.829 108.583,213.497 c 0.016,-0.22 0.045,-0.439 0.065,-0.659 -0.108,1.19 -0.169,2.387 -0.169,3.591 0,41.679 65.6,75.466 146.521,75.466 80.921,0 146.521,-33.787 146.521,-75.466 0,-1.204 -0.061,-2.4 -0.169,-3.591 z"
       id="path233"
       style="fill:url(#SVGID_5_)"
       inkscape:connector-curvature="0" />
    <g
       id="g241">
      <g
         id="g239">
        <path
           inkscape:connector-curvature="0"
           style="fill:url(#SVGID_6_)"
           id="path235"
           d="m 53.329,461.66 v 13.248 c 0,6.13 2.74,11.939 7.47,15.838 l 16.396,13.516 c 4.5,3.71 10.151,5.738 15.983,5.738 h 323.643 c 5.832,0 11.483,-2.029 15.983,-5.738 L 449.2,490.746 c 4.73,-3.899 7.47,-9.708 7.47,-15.838 V 461.66 c 0,-9.656 -7.827,-17.483 -17.483,-17.483 H 70.812 c -9.656,0 -17.483,7.827 -17.483,17.483 z" />
        <path
           inkscape:connector-curvature="0"
           style="fill:url(#SVGID_7_)"
           id="path237"
           d="m 53.443,477.037 c 0.556,5.33 3.177,10.265 7.356,13.709 l 16.396,13.516 c 4.5,3.71 10.151,5.738 15.983,5.738 h 323.643 c 5.832,0 11.483,-2.029 15.983,-5.738 L 449.2,490.746 c 4.178,-3.444 6.8,-8.38 7.356,-13.709 z" />
      </g>
    </g>
    <path
       d="M 422.175,471.759 H 87.825 c -12.937,0 -23.424,-10.487 -23.424,-23.424 V 267.674 c 0,-12.937 10.487,-23.424 23.424,-23.424 h 334.351 c 12.937,0 23.424,10.487 23.424,23.424 v 180.661 c -0.001,12.936 -10.488,23.424 -23.425,23.424 z"
       id="path243"
       style="fill:url(#SVGID_8_)"
       inkscape:connector-curvature="0" />
    <path
       d="m 64.401,388.225 v 60.862 c 0,12.521 10.835,22.672 24.201,22.672 h 332.796 c 13.366,0 24.201,-10.15 24.201,-22.672 v -60.862 z"
       id="path247"
       style="fill:url(#SVGID_10_)"
       inkscape:connector-curvature="0" />
    <g
       id="g255">
      <path
         inkscape:connector-curvature="0"
         style="fill:url(#SVGID_11_)"
         id="path251"
         d="m 166.423,482.394 h -27.68 c -5.023,0 -9.095,-4.072 -9.095,-9.095 v -3.559 c 0,-5.023 4.072,-9.095 9.095,-9.095 h 27.68 c 5.023,0 9.095,4.072 9.095,9.095 v 3.559 c 0,5.023 -4.072,9.095 -9.095,9.095 z" />
      <path
         inkscape:connector-curvature="0"
         style="fill:url(#SVGID_12_)"
         id="path253"
         d="m 371.257,482.394 h -27.68 c -5.023,0 -9.095,-4.072 -9.095,-9.095 v -3.559 c 0,-5.023 4.072,-9.095 9.095,-9.095 h 27.68 c 5.023,0 9.095,4.072 9.095,9.095 v 3.559 c 0,5.023 -4.071,9.095 -9.095,9.095 z" />
    </g>
    <path
       d="M 410.818,213.497 C 407.629,173.177 339.091,140.962 255,140.962 c -84.091,0 -152.629,32.215 -155.818,72.535 C 102.351,94.829 170.899,0 255,0 339.101,0 407.649,94.829 410.818,213.497 Z"
       id="path259"
       style="fill:url(#SVGID_13_)"
       inkscape:connector-curvature="0" />
    <text
       id="text305"
       y="371.09756"
       x="217.68292"
       style="font-style:normal;font-weight:normal;font-size:39.84375px;line-height:1.25;font-family:sans-serif;letter-spacing:0px;word-spacing:0px;fill:#000000;fill-opacity:1;stroke:none;stroke-width:0.99609375"
       xml:space="preserve"><tspan
         style="font-style:normal;font-variant:normal;font-weight:bold;font-stretch:normal;font-size:39.84375px;font-family:'SF Pro Display';-inkscape-font-specification:'SF Pro Display, Bold';font-variant-ligatures:normal;font-variant-caps:normal;font-variant-numeric:normal;font-feature-settings:normal;text-align:start;writing-mode:lr;text-anchor:start;stroke-width:0.99609375;fill:#ffffff"
         y="371.09756"
         x="217.68292"
         id="tspan303"
         sodipodi:role="line">N13q</tspan></text>
  </g>
</svg>
